<svg xmlns="http://www.w3.org/2000/svg" fill="none" viewBox="0 0 1510.9238434163701 511.4605543710021" style="max-height: 500px" width="1510.9238434163701" height="511.4605543710021">
<path stroke="#F2F2F2" d="M1 28L757 116L1513 28"/>
<path stroke="#F2F2F2" d="M1 48L757 136L1513 48"/>
<path stroke="#F2F2F2" d="M1 68L757 156L1513 68"/>
<path stroke="#F2F2F2" d="M1 88L757 176L1513 88"/>
<path stroke="#F2F2F2" d="M1 108L757 196L1513 108"/>
<path stroke="#F2F2F2" d="M1 128L757 216L1513 128"/>
<path stroke="#F2F2F2" d="M1 148L757 236L1513 148"/>
<path stroke="#F2F2F2" d="M1 168L757 256L1513 168"/>
<path stroke="#F2F2F2" d="M1 188L757 276L1513 188"/>
<path stroke="#F2F2F2" d="M1 208L757 296L1513 208"/>
<path stroke="#F2F2F2" d="M1 228L757 316L1513 228"/>
<path stroke="#F2F2F2" d="M1 248L757 336L1513 248"/>
<path stroke="#F2F2F2" d="M1 268L757 356L1513 268"/>
<path stroke="#F2F2F2" d="M1 288L757 376L1513 288"/>
<path stroke="#F2F2F2" d="M1 308L757 396L1513 308"/>
<path stroke="#F2F2F2" d="M1 328L757 416L1513 328"/>
<path stroke="#F2F2F2" d="M1 348L757 436L1513 348"/>
<path stroke="#F2F2F2" d="M1 368L757 456L1513 368"/>
<path stroke="#F2F2F2" d="M1 388L757 476L1513 388"/>
<rect fill="url(#paint0_linear_1076_60)" height="496" width="1513" x="1"/>
<path stroke="#F2F2F2" d="M1 1845L757 1933L1513 1845"/>
<path stroke="#F2F2F2" d="M1 1865L757 1953L1513 1865"/>
<path stroke="#F2F2F2" d="M1 1885L757 1973L1513 1885"/>
<path stroke="#F2F2F2" d="M1 1905L757 1993L1513 1905"/>
<path stroke="#F2F2F2" d="M1 1925L757 2013L1513 1925"/>
<path stroke="#F2F2F2" d="M1 1945L757 2033L1513 1945"/>
<path stroke="#F2F2F2" d="M1 1965L757 2053L1513 1965"/>
<path stroke="#F2F2F2" d="M1 1985L757 2073L1513 1985"/>
<path stroke="#F2F2F2" d="M1 2005L757 2093L1513 2005"/>
<path stroke="#F2F2F2" d="M1 2025L757 2113L1513 2025"/>
<path stroke="#F2F2F2" d="M1 2045L757 2133L1513 2045"/>
<path stroke="#F2F2F2" d="M1 2065L757 2153L1513 2065"/>
<path stroke="#F2F2F2" d="M1 2085L757 2173L1513 2085"/>
<path stroke="#F2F2F2" d="M1 2105L757 2193L1513 2105"/>
<path stroke="#F2F2F2" d="M1 2125L757 2213L1513 2125"/>
<path stroke="#F2F2F2" d="M1 2145L757 2233L1513 2145"/>
<path stroke="#F2F2F2" d="M1 2165L757 2253L1513 2165"/>
<path stroke="#F2F2F2" d="M1 2185L757 2273L1513 2185"/>
<path stroke="#F2F2F2" d="M1 2205L757 2293L1513 2205"/>
<path stroke="#F2F2F2" d="M1 2225L757 2313L1513 2225"/>
<path stroke="#F2F2F2" d="M1 2245L757 2333L1513 2245"/>
<path stroke="#F2F2F2" d="M1 2265L757 2353L1513 2265"/>
<path stroke="#F2F2F2" d="M1 2285L757 2373L1513 2285"/>
<path stroke="#F2F2F2" d="M1 2305L757 2393L1513 2305"/>
<path stroke="#F2F2F2" d="M1 2325L757 2413L1513 2325"/>
<path stroke="#F2F2F2" d="M1 2345L757 2433L1513 2345"/>
<path stroke="#F2F2F2" d="M1 2365L757 2453L1513 2365"/>
<path stroke="#F2F2F2" d="M1 2385L757 2473L1513 2385"/>
<path stroke="#F2F2F2" d="M1 2405L757 2493L1513 2405"/>
<path stroke="#F2F2F2" d="M1 2425L757 2513L1513 2425"/>
 <rect fill="url(#paint0_linear_1076_60)" height="496" width="1512"/>
<path fill="#3D3A3A" d="M756 490L0 403V490V893H1512V490V403L756 490Z" clip-rule="evenodd" fill-rule="evenodd"/>
<defs>
<linearGradient gradientUnits="userSpaceOnUse" y2="496" x2="758" y1="-5.5358e-06" x1="758" id="paint0_linear_1076_60">
<stop stop-color="white"/>
<stop stop-opacity="0" stop-color="white" offset="1"/>
</linearGradient>
<linearGradient gradientUnits="userSpaceOnUse" y2="3235" x2="2270" y1="2525" x1="2270" id="paint1_linear_1076_60">
<stop stop-color="white"/>
<stop stop-opacity="0" stop-color="white" offset="1"/>
</linearGradient>
</defs>

</svg>




