<!DOCTYPE svg PUBLIC "-//W3C//DTD SVG 1.1//EN" "http://www.w3.org/Graphics/SVG/1.1/DTD/svg11.dtd">

<!-- Uploaded to: SVG Repo, www.svgrepo.com, Transformed by: SVG Repo Mixer Tools -->
<svg fill="#212121" width="25px" height="25px" viewBox="0 0 24.00 24.00" xmlns="http://www.w3.org/2000/svg" stroke="#212121" stroke-width="0.00024000000000000003" transform="matrix(1, 0, 0, -1, 0, 0)">

<g id="SVGRepo_bgCarrier" stroke-width="0"/>

<g id="SVGRepo_tracerCarrier" stroke-linecap="round" stroke-linejoin="round"/>

<g id="SVGRepo_iconCarrier">

<path d="M18.5 16.44V6.75a.75.75 0 00-1.5 0v9.69l-2.22-2.22a.75.75 0 10-1.06 1.06l3.5 3.5a.75.75 0 001.06 0l3.5-3.5a.75.75 0 10-1.06-1.06l-2.22 2.22zM2 7.25a.75.75 0 01.75-.75h9.5a.75.75 0 010 1.5h-9.5A.75.75 0 012 7.25zm0 5a.75.75 0 01.75-.75h5.5a.75.75 0 010 1.5h-5.5a.75.75 0 01-.75-.75zm0 5a.75.75 0 01.75-.75h3.5a.75.75 0 010 1.5h-3.5a.75.75 0 01-.75-.75z"/>

</g>

</svg>