<?xml version="1.0" standalone="no"?>
<!DOCTYPE svg PUBLIC "-//W3C//DTD SVG 20010904//EN"
 "http://www.w3.org/TR/2001/REC-SVG-20010904/DTD/svg10.dtd">
<svg version="1.0" xmlns="http://www.w3.org/2000/svg"
 width="183.000000pt" height="40.000000pt" viewBox="0 0 183.000000 40.000000"
 preserveAspectRatio="xMidYMid meet">

<g transform="translate(0.000000,40.000000) scale(0.100000,-0.100000)"
fill="#000000" stroke="none">
<path d="M110 354 c-101 -56 -100 -54 -100 -153 0 -47 4 -91 8 -97 4 -6 43
-31 86 -54 l79 -44 71 39 c39 20 77 43 84 50 12 11 17 90 13 192 -1 12 -147
103 -166 103 -5 0 -39 -16 -75 -36z m106 -58 c3 -8 12 -12 20 -9 20 8 43 -14
37 -36 -3 -11 2 -21 11 -24 20 -8 21 -41 1 -57 -9 -7 -14 -19 -11 -26 6 -17
-20 -38 -38 -31 -8 3 -17 -1 -20 -9 -15 -39 -122 6 -140 59 -15 43 3 98 43
124 38 26 89 30 97 9z"/>
<path d="M142 238 c-15 -15 -15 -61 0 -76 7 -7 27 -12 45 -12 42 0 63 35 45
75 -9 19 -19 25 -45 25 -18 0 -38 -5 -45 -12z"/>
<path d="M460 280 c-45 -45 -11 -120 54 -120 33 0 62 20 49 34 -4 3 -21 4 -38
0 -42 -7 -63 16 -47 51 12 25 45 34 57 15 5 -8 12 -7 22 1 13 11 13 14 -3 26
-26 19 -71 16 -94 -7z"/>
<path d="M601 274 c-27 -34 -27 -64 -1 -92 42 -45 130 -17 130 42 0 69 -88
102 -129 50z m89 -24 c15 -28 -4 -60 -35 -60 -31 0 -50 32 -35 60 6 12 21 20
35 20 14 0 29 -8 35 -20z"/>
<path d="M750 230 l0 -70 48 0 c58 0 82 20 82 68 0 47 -30 72 -85 72 l-45 0 0
-70z m94 18 c14 -23 -3 -52 -33 -56 -19 -3 -21 1 -21 38 0 37 2 41 21 38 12
-2 27 -11 33 -20z"/>
<path d="M910 230 l0 -70 50 0 c38 0 50 4 50 15 0 10 -11 15 -35 15 -19 0 -35
5 -35 10 0 6 14 10 30 10 20 0 30 5 30 15 0 10 -10 15 -30 15 -20 0 -30 5 -30
15 0 10 11 15 35 15 24 0 35 5 35 15 0 11 -12 15 -50 15 l-50 0 0 -70z"/>
<path d="M1080 230 l0 -70 50 0 c37 0 50 4 50 14 0 10 -13 16 -37 18 -47 4
-50 22 -5 26 17 2 32 7 32 12 0 5 -15 10 -32 12 -45 4 -42 22 5 26 24 2 37 8
37 18 0 10 -13 14 -50 14 l-50 0 0 -70z"/>
<path d="M1219 298 c0 -2 -1 -33 -2 -71 -2 -71 15 -91 21 -24 2 20 6 37 10 37
4 -1 19 -19 34 -40 15 -22 32 -40 38 -40 6 0 10 30 10 70 0 40 -4 70 -10 70
-5 0 -10 -18 -10 -40 0 -22 -4 -40 -10 -40 -5 0 -21 18 -35 40 -20 32 -43 51
-46 38z"/>
<path d="M1396 279 c-63 -49 1 -142 78 -113 18 7 23 64 6 64 -5 0 -10 -9 -10
-20 0 -28 -25 -35 -55 -16 -50 33 -14 90 49 80 30 -5 30 -5 12 10 -27 21 -48
20 -80 -5z"/>
<path d="M1533 230 c0 -41 2 -58 4 -37 2 20 2 54 0 75 -2 20 -4 3 -4 -38z"/>
<path d="M1590 230 c0 -40 4 -70 10 -70 6 0 10 18 10 40 0 22 4 40 10 40 5 0
22 -18 36 -40 40 -61 54 -53 54 30 0 40 -4 70 -10 70 -5 0 -10 -18 -10 -40 0
-22 -4 -40 -8 -40 -5 0 -23 18 -41 40 -17 22 -36 40 -41 40 -6 0 -10 -31 -10
-70z"/>
<path d="M1750 230 l0 -70 40 0 c29 0 40 4 40 15 0 10 -10 15 -31 15 -38 0
-35 24 4 28 37 4 34 22 -3 22 -20 0 -30 5 -30 15 0 10 10 15 30 15 20 0 30 5
30 15 0 11 -11 15 -40 15 l-40 0 0 -70z"/>
</g>
</svg>
